<?xml version="1.0" standalone="no"?>
<!DOCTYPE svg PUBLIC "-//W3C//DTD SVG 20010904//EN"
 "http://www.w3.org/TR/2001/REC-SVG-20010904/DTD/svg10.dtd">
<svg version="1.0" xmlns="http://www.w3.org/2000/svg"
 width="600.000000pt" height="600.000000pt" viewBox="0 0 600.000000 600.000000"
 preserveAspectRatio="xMidYMid meet">
<metadata>
Created by potrace 1.14, written by Peter Selinger 2001-2017
</metadata>
<g transform="translate(0.000000,600.000000) scale(0.100000,-0.100000)"
fill="#000000" stroke="none">
<path d="M2725 5990 c-208 -23 -342 -48 -515 -95 -436 -120 -833 -331 -1180
-629 -166 -143 -400 -409 -524 -596 -59 -89 -179 -292 -185 -315 -2 -5 -12
-27 -22 -47 -97 -191 -210 -526 -244 -728 -3 -19 -8 -42 -10 -50 -5 -19 -14
-79 -30 -215 -13 -107 -14 -577 -1 -635 2 -14 10 -63 16 -110 65 -498 297
-1032 630 -1450 91 -114 285 -314 400 -411 455 -388 1045 -638 1650 -698 125
-12 438 -13 565 -1 609 58 1184 298 1654 688 85 71 302 288 373 373 181 218
364 518 458 749 12 30 28 69 35 85 80 187 161 515 189 767 14 122 15 564 2
653 -3 22 -11 74 -17 115 -38 260 -129 570 -239 806 -16 36 -30 67 -30 68 0 9
-120 223 -163 291 -124 196 -247 347 -426 525 -247 246 -472 406 -786 561
-209 102 -484 202 -645 233 -14 3 -70 14 -125 25 -55 11 -127 23 -160 26 -33
4 -69 9 -80 12 -36 9 -518 11 -590 3z"/>
</g>
</svg>
